<mxfile host="Electron" agent="Mozilla/5.0 (Windows NT 10.0; Win64; x64) AppleWebKit/537.36 (KHTML, like Gecko) draw.io/26.0.4 Chrome/128.0.6613.186 Electron/32.2.5 Safari/537.36" version="26.0.4">
  <diagram name="Page-1" id="cBATo5Cm4NL-kuj8FKrh">
    <mxGraphModel dx="1434" dy="844" grid="1" gridSize="10" guides="1" tooltips="1" connect="1" arrows="1" fold="1" page="1" pageScale="1" pageWidth="1169" pageHeight="827" math="0" shadow="0">
      <root>
        <mxCell id="0" />
        <mxCell id="1" parent="0" />
        <mxCell id="KOd4zk1bxHOUvbGizJSH-9" value="" style="rounded=1;whiteSpace=wrap;html=1;fillColor=#d5e8d4;strokeColor=#82b366;" vertex="1" parent="1">
          <mxGeometry x="220" y="80" width="520" height="160" as="geometry" />
        </mxCell>
        <mxCell id="KOd4zk1bxHOUvbGizJSH-2" value="Система исполнения заказов" style="whiteSpace=wrap;html=1;aspect=fixed;rounded=1;strokeColor=default;align=center;verticalAlign=middle;fontFamily=Helvetica;fontSize=12;fontColor=default;fillColor=default;" vertex="1" parent="1">
          <mxGeometry x="260" y="120" width="80" height="80" as="geometry" />
        </mxCell>
        <mxCell id="KOd4zk1bxHOUvbGizJSH-4" value="Списание средств у пользователей" style="whiteSpace=wrap;html=1;aspect=fixed;rounded=1;strokeColor=default;align=center;verticalAlign=middle;fontFamily=Helvetica;fontSize=11;fontColor=default;fillColor=default;" vertex="1" parent="1">
          <mxGeometry x="380" y="120" width="80" height="80" as="geometry" />
        </mxCell>
        <mxCell id="KOd4zk1bxHOUvbGizJSH-8" value="Начисление средств исполнителям" style="whiteSpace=wrap;html=1;aspect=fixed;rounded=1;strokeColor=default;align=center;verticalAlign=middle;fontFamily=Helvetica;fontSize=11;fontColor=default;fillColor=default;" vertex="1" parent="1">
          <mxGeometry x="500" y="120" width="80" height="80" as="geometry" />
        </mxCell>
        <mxCell id="KOd4zk1bxHOUvbGizJSH-10" value="Исполнение заказов" style="text;html=1;align=center;verticalAlign=middle;resizable=0;points=[];autosize=1;strokeColor=none;fillColor=none;" vertex="1" parent="1">
          <mxGeometry x="410" y="90" width="140" height="30" as="geometry" />
        </mxCell>
        <mxCell id="KOd4zk1bxHOUvbGizJSH-11" value="" style="rounded=1;whiteSpace=wrap;html=1;fillColor=#E6E6E6;strokeColor=#666666;fontColor=#333333;" vertex="1" parent="1">
          <mxGeometry x="220" y="280" width="120" height="120" as="geometry" />
        </mxCell>
        <mxCell id="KOd4zk1bxHOUvbGizJSH-3" value="Система сборки расходников" style="whiteSpace=wrap;html=1;aspect=fixed;rounded=1;strokeColor=default;align=center;verticalAlign=middle;fontFamily=Helvetica;fontSize=12;fontColor=default;fillColor=default;" vertex="1" parent="1">
          <mxGeometry x="240" y="310" width="80" height="80" as="geometry" />
        </mxCell>
        <mxCell id="KOd4zk1bxHOUvbGizJSH-12" value="Сборка расходников" style="text;html=1;align=center;verticalAlign=middle;resizable=0;points=[];autosize=1;strokeColor=none;fillColor=none;" vertex="1" parent="1">
          <mxGeometry x="210" y="280" width="140" height="30" as="geometry" />
        </mxCell>
        <mxCell id="KOd4zk1bxHOUvbGizJSH-13" value="" style="rounded=1;whiteSpace=wrap;html=1;fillColor=#e1d5e7;strokeColor=#9673a6;" vertex="1" parent="1">
          <mxGeometry x="420" y="280" width="120" height="120" as="geometry" />
        </mxCell>
        <mxCell id="KOd4zk1bxHOUvbGizJSH-14" value="Изучение качества&lt;div&gt;работы&lt;/div&gt;" style="text;html=1;align=center;verticalAlign=middle;resizable=0;points=[];autosize=1;strokeColor=none;fillColor=none;fontSize=11;" vertex="1" parent="1">
          <mxGeometry x="420" y="275" width="120" height="40" as="geometry" />
        </mxCell>
        <mxCell id="KOd4zk1bxHOUvbGizJSH-15" value="" style="rounded=1;whiteSpace=wrap;html=1;fillColor=#e1d5e7;strokeColor=#9673a6;" vertex="1" parent="1">
          <mxGeometry x="620" y="280" width="120" height="120" as="geometry" />
        </mxCell>
        <mxCell id="KOd4zk1bxHOUvbGizJSH-16" value="Матчинг воркера&lt;div&gt;под услугу&lt;/div&gt;" style="text;html=1;align=center;verticalAlign=middle;resizable=0;points=[];autosize=1;strokeColor=none;fillColor=none;fontSize=11;" vertex="1" parent="1">
          <mxGeometry x="625" y="275" width="110" height="40" as="geometry" />
        </mxCell>
        <mxCell id="KOd4zk1bxHOUvbGizJSH-17" value="" style="rounded=1;whiteSpace=wrap;html=1;fillColor=#e1d5e7;strokeColor=#9673a6;" vertex="1" parent="1">
          <mxGeometry x="220" y="440" width="120" height="120" as="geometry" />
        </mxCell>
        <mxCell id="KOd4zk1bxHOUvbGizJSH-18" value="Привлечение новых&lt;div&gt;исполнителей&lt;/div&gt;" style="text;html=1;align=center;verticalAlign=middle;resizable=0;points=[];autosize=1;strokeColor=none;fillColor=none;fontSize=11;" vertex="1" parent="1">
          <mxGeometry x="215" y="435" width="130" height="40" as="geometry" />
        </mxCell>
        <mxCell id="KOd4zk1bxHOUvbGizJSH-19" value="" style="rounded=1;whiteSpace=wrap;html=1;fillColor=#e1d5e7;strokeColor=#9673a6;" vertex="1" parent="1">
          <mxGeometry x="420" y="440" width="120" height="120" as="geometry" />
        </mxCell>
        <mxCell id="KOd4zk1bxHOUvbGizJSH-20" value="Повышение мотивации&lt;div&gt;менеджеров&lt;/div&gt;" style="text;html=1;align=center;verticalAlign=middle;resizable=0;points=[];autosize=1;strokeColor=none;fillColor=none;fontSize=10;" vertex="1" parent="1">
          <mxGeometry x="415" y="435" width="130" height="40" as="geometry" />
        </mxCell>
        <mxCell id="KOd4zk1bxHOUvbGizJSH-5" value="Р&lt;span style=&quot;background-color: transparent; color: light-dark(rgb(0, 0, 0), rgb(255, 255, 255));&quot;&gt;азработка гипотез для улучшения бизнеса&lt;/span&gt;" style="whiteSpace=wrap;html=1;aspect=fixed;rounded=1;strokeColor=default;align=center;verticalAlign=middle;fontFamily=Helvetica;fontSize=12;fontColor=default;fillColor=default;" vertex="1" parent="1">
          <mxGeometry x="440" y="310" width="80" height="80" as="geometry" />
        </mxCell>
        <mxCell id="KOd4zk1bxHOUvbGizJSH-21" value="Алгоритм матчинга" style="whiteSpace=wrap;html=1;aspect=fixed;rounded=1;strokeColor=default;align=center;verticalAlign=middle;fontFamily=Helvetica;fontSize=12;fontColor=default;fillColor=default;" vertex="1" parent="1">
          <mxGeometry x="640" y="310" width="80" height="80" as="geometry" />
        </mxCell>
        <mxCell id="KOd4zk1bxHOUvbGizJSH-1" value="Устройство новых исполнителей в штат" style="whiteSpace=wrap;html=1;aspect=fixed;rounded=1;" vertex="1" parent="1">
          <mxGeometry x="240" y="470" width="80" height="80" as="geometry" />
        </mxCell>
        <mxCell id="KOd4zk1bxHOUvbGizJSH-7" value="Система ставок" style="whiteSpace=wrap;html=1;aspect=fixed;rounded=1;" vertex="1" parent="1">
          <mxGeometry x="440" y="470" width="80" height="80" as="geometry" />
        </mxCell>
        <mxCell id="KOd4zk1bxHOUvbGizJSH-22" value="Добавление новых клиентов" style="whiteSpace=wrap;html=1;aspect=fixed;rounded=1;strokeColor=default;align=center;verticalAlign=middle;fontFamily=Helvetica;fontSize=11;fontColor=default;fillColor=default;" vertex="1" parent="1">
          <mxGeometry x="620" y="120" width="80" height="80" as="geometry" />
        </mxCell>
      </root>
    </mxGraphModel>
  </diagram>
</mxfile>
